HIERARCHY
ROOT Hips
{
	OFFSET 0.000000 0.000000 0.000000 
	CHANNELS 6 Xposition Yposition Zposition Zrotation Yrotation Xrotation
	JOINT LeftUpLeg
	{
		OFFSET 1.363060 -1.794630 0.839290 
		CHANNELS 3 Zrotation Yrotation Xrotation
		JOINT LeftLeg
		{
			OFFSET 2.448110 -6.726130 0.000000 
			CHANNELS 3 Zrotation Yrotation Xrotation
			JOINT LeftFoot
			{
				OFFSET 2.562200 -7.039590 0.000000 
				CHANNELS 3 Zrotation Yrotation Xrotation
				JOINT LeftToeBase
				{
					OFFSET 0.157640 -0.433110 2.322550 
					CHANNELS 3 Zrotation Yrotation Xrotation
					End Site
					{
						OFFSET 0.000000 0.000000 0.000000 
					}
				}
			}
		}
	}
	JOINT RightUpLeg
	{
		OFFSET -1.305520 -1.794630 0.839290 
		CHANNELS 3 Zrotation Yrotation Xrotation
		JOINT RightLeg
		{
			OFFSET -2.542530 -6.985550 0.000000 
			CHANNELS 3 Zrotation Yrotation Xrotation
			JOINT RightFoot
			{
				OFFSET -2.568260 -7.056230 0.000000 
				CHANNELS 3 Zrotation Yrotation Xrotation
				JOINT RightToeBase
				{
					OFFSET -0.164730 -0.452590 2.363150 
					CHANNELS 3 Zrotation Yrotation Xrotation
					End Site
					{
						OFFSET 0.000000 0.000000 0.000000 
					}
				}
			}
		}
	}
	JOINT Spine
	{
		OFFSET 0.028270 2.035590 -0.193380 
		CHANNELS 3 Zrotation Yrotation Xrotation
		JOINT Spine1
		{
			OFFSET 0.056720 2.048850 -0.042750 
			CHANNELS 3 Zrotation Yrotation Xrotation
			JOINT Neck1
			{
				OFFSET -0.054170 1.746240 0.172020 
				CHANNELS 3 Zrotation Yrotation Xrotation
				JOINT Head
				{
					OFFSET 0.104070 1.761360 -0.123970 
					CHANNELS 3 Zrotation Yrotation Xrotation
					End Site
					{
						OFFSET 0.000000 0.000000 0.000000 
					}
				}
			}
			JOINT LeftArm
			{
				OFFSET 3.362410 1.200890 -0.311210 
				CHANNELS 3 Zrotation Yrotation Xrotation
				JOINT LeftForeArm
				{
					OFFSET 4.983000 -0.000000 -0.000000 
					CHANNELS 3 Zrotation Yrotation Xrotation
					JOINT LeftHand
					{
						OFFSET 3.483560 -0.000000 -0.000000 
						CHANNELS 3 Zrotation Yrotation Xrotation
						JOINT LeftHandIndex1
						{
							OFFSET 0.715260 -0.000000 -0.000000 
							CHANNELS 3 Zrotation Yrotation Xrotation
							End Site
							{
								OFFSET 0.000000 0.000000 0.000000 
							}
						}
					}
				}
			}
			JOINT RightArm
			{
				OFFSET -3.136600 1.374050 -0.404650 
				CHANNELS 3 Zrotation Yrotation Xrotation
				JOINT RightForeArm
				{
					OFFSET -5.241900 -0.000000 -0.000000 
					CHANNELS 3 Zrotation Yrotation Xrotation
					JOINT RightHand
					{
						OFFSET -3.444170 -0.000000 -0.000000 
						CHANNELS 3 Zrotation Yrotation Xrotation
						JOINT RightHandIndex1
						{
							OFFSET -0.622530 -0.000000 -0.000000 
							CHANNELS 3 Zrotation Yrotation Xrotation
							End Site
							{
								OFFSET 0.000000 0.000000 0.000000 
							}
						}
					}
				}
			}
		}
	}
}
MOTION
Frames: 12
Frame Time: 0.041667
7.668661 17.012404 0.655276 111.800186 75.845547 106.883840 -36.629786 11.710064 22.547815 -1.608144 3.113176 6.495024 0.987095 -3.968502 -15.763693 0.070600 1.713900 4.715500 7.228631 -1.877491 -12.667428 -1.889544 -4.351650 9.909626 -0.285961 3.105958 -13.009590 -0.612800 -5.010300 13.937900 -0.006057 -2.244788 -2.418755 3.195113 -1.318996 3.686391 5.067124 2.128834 5.594404 -0.737700 1.083000 9.441700 -88.944407 -10.905468 58.006515 24.433873 -36.457538 -8.478132 -0.253150 0.598694 -1.901995 -7.125000 0.000000 0.000000 89.530914 -20.177269 28.590694 -19.135529 32.600228 -4.944658 0.769583 -2.615716 0.952219 7.125000 0.000000 0.000000 
7.806921 16.998998 0.660904 112.211608 75.784062 107.360901 -36.803977 11.308806 23.088836 -1.625447 3.134331 6.586422 0.985480 -3.627501 -15.990024 0.059300 1.571500 4.322900 7.230568 -1.947089 -12.551482 -1.891816 -4.657769 10.784585 -0.339325 2.139347 -13.060542 -0.500900 -4.537000 12.592600 -0.002524 -2.242919 -2.427838 3.157983 -1.312124 3.663678 5.104989 2.087656 5.507850 -0.727300 1.067300 9.365100 -89.042038 -10.547472 58.372265 24.162596 -36.195345 -8.315741 -0.261052 0.599546 -1.590000 -7.125000 0.000000 0.000000 89.622002 -20.114722 28.393035 -18.953734 32.411126 -4.870696 0.762935 -2.613018 1.353825 7.125000 0.000000 0.000000 
7.952139 16.989276 0.668375 113.240234 75.848764 108.360866 -36.687686 10.996536 23.715105 -1.636184 3.149841 6.692667 0.974498 -3.245963 -16.132739 0.015700 0.810100 2.226400 7.503009 -2.225005 -12.028220 -1.863315 -4.758455 11.029825 -0.380040 0.529326 -12.487073 -0.487200 -4.475800 12.419200 0.017900 -2.291278 -2.441191 3.080650 -1.329705 3.636373 5.088833 2.168749 5.425363 -0.756500 1.107400 9.331100 -89.127600 -10.080396 58.606657 24.054590 -36.092272 -8.247728 -0.256666 0.593671 -1.758098 -7.125000 0.000000 0.000000 89.686258 -19.999819 28.360794 -18.721296 32.164116 -4.780461 0.759443 -2.616817 1.610277 7.125000 0.000000 0.000000 
8.098996 16.983033 0.675232 114.364848 76.088530 109.443292 -36.336239 10.735190 24.299460 -1.636876 3.177947 6.850016 0.962545 -2.975011 -16.169331 0.000800 0.180200 0.495000 8.042516 -2.654798 -11.353049 -1.815619 -4.651955 10.646009 -0.390763 -1.100906 -11.464011 -0.549000 -4.746500 13.186900 0.065228 -2.291326 -2.453217 3.049302 -1.330542 3.629470 4.915588 2.183801 5.495504 -0.865400 1.099700 9.425800 -89.351540 -9.615326 58.787062 24.039612 -36.079889 -8.231820 -0.242748 0.583287 -2.309912 -7.125000 0.000000 0.000000 89.582950 -20.008420 28.577169 -18.737311 32.168331 -4.788065 0.774385 -2.621244 1.473047 7.125000 0.000000 0.000000 
8.242884 16.977916 0.681168 114.901873 76.345921 110.004122 -36.110841 10.421315 24.802912 -1.640604 3.205186 6.991628 0.938975 -2.671654 -16.119050 0.000200 0.086400 0.237400 8.498312 -3.192841 -10.940525 -1.774765 -4.492082 10.141644 -0.380045 -2.414599 -10.084518 -0.680100 -5.272800 14.688200 0.105078 -2.271324 -2.484522 3.025690 -1.308179 3.535906 4.853273 2.227315 5.466207 -0.896200 1.112000 9.397300 -89.543410 -9.119943 58.954035 23.896344 -35.939532 -8.143698 -0.232974 0.578597 -2.557609 -7.125000 0.000000 0.000000 89.481287 -20.165557 28.706649 -18.884935 32.308510 -4.841662 0.786795 -2.616697 1.427794 7.125000 0.000000 0.000000 
8.391685 16.976893 0.685875 115.168798 76.403899 110.299738 -36.140329 10.141534 25.285814 -1.644847 3.261730 7.188408 0.908789 -2.350782 -16.029868 0.000100 0.050700 0.139200 8.521613 -4.112393 -10.684413 -1.738214 -4.362111 9.803461 -0.360231 -2.814469 -8.950403 -0.829600 -5.810800 16.236400 0.125346 -2.294156 -2.484237 3.008372 -1.324796 3.609078 4.922243 2.313071 5.347170 -0.858800 1.157200 9.306600 -89.635988 -8.664564 59.106975 23.599190 -35.654579 -7.971962 -0.231326 0.578366 -2.284088 -7.125000 0.000000 0.000000 89.471588 -20.011138 28.558697 -18.754535 32.172930 -4.787853 0.770034 -2.608145 1.874679 7.125000 0.000000 0.000000 
8.550412 16.984261 0.690276 115.682762 76.636882 110.767575 -35.901815 9.957021 25.820462 -1.642027 3.328485 7.435350 0.880725 -1.992622 -15.987408 0.007900 -0.574400 -1.578400 8.773183 -5.172933 -10.379497 -1.718760 -4.311894 9.645158 -0.324809 -2.467001 -8.089041 -0.978800 -6.298000 17.651500 0.149110 -2.240204 -2.470365 2.877772 -1.305354 3.714515 4.900584 2.331408 5.329535 -0.886800 1.168000 9.326600 -89.783764 -8.145814 59.383418 23.162560 -35.218752 -7.721575 -0.244537 0.583632 -1.727993 -7.125000 0.000000 0.000000 89.446522 -19.727070 28.558790 -18.501365 31.914838 -4.692599 0.747990 -2.608037 2.119059 7.125000 0.000000 0.000000 
8.693380 16.993983 0.702966 117.957387 77.274998 113.082967 -34.903002 9.572567 26.218631 -1.621337 3.407771 7.780974 0.846795 -1.761422 -15.721095 0.051000 -1.456900 -4.007000 9.840275 -5.686315 -10.204229 -1.733560 -4.387181 9.704080 -0.298705 -2.269030 -7.459901 -1.093300 -6.644800 18.667100 0.240841 -2.290113 -2.520462 2.762171 -1.315043 3.530220 4.861836 2.376733 5.335012 -0.897000 1.184700 9.359400 -90.064931 -7.492800 59.560198 22.705800 -34.739993 -7.459274 -0.256685 0.590420 -1.459579 -7.125000 0.000000 0.000000 89.293390 -19.655707 28.806982 -18.468905 31.863863 -4.682110 0.749352 -2.611328 1.966547 7.125000 0.000000 0.000000 
8.842181 17.010153 0.711357 119.511022 78.028918 114.611566 -33.894970 9.358981 26.670048 -1.600033 3.477372 8.097025 0.790044 -1.361136 -15.361859 0.083000 -1.858100 -5.113600 11.052578 -5.802767 -10.011521 -1.772822 -4.592634 10.101230 -0.269218 -1.945825 -6.640144 -1.254600 -7.100900 20.014800 0.354044 -2.268247 -2.519583 2.755257 -1.315640 3.547105 4.825084 2.521469 5.309322 -0.890300 1.241800 9.364800 -90.432346 -6.951390 59.421311 22.271700 -34.294865 -7.217021 -0.253335 0.590380 -1.217344 -7.125000 0.000000 0.000000 89.050122 -19.492017 28.925605 -18.453538 31.832564 -4.681245 0.752300 -2.610652 2.065991 7.125000 0.000000 0.000000 
8.996712 17.032360 0.717191 119.870927 78.398796 114.933732 -33.486471 9.208131 27.009866 -1.577063 3.646437 8.621145 0.734790 -0.915427 -15.097609 0.088700 -1.921300 -5.288200 11.582020 -6.205633 -9.838025 -1.805072 -4.825072 10.687489 -0.236374 -1.408169 -5.676410 -1.523200 -7.793100 22.087300 0.417304 -2.187474 -2.480974 2.777423 -1.297216 3.713914 4.740155 2.625084 5.215429 -0.939000 1.276200 9.316000 -90.709560 -6.414219 59.215027 21.935251 -33.961905 -7.034421 -0.250786 0.588861 -0.911564 -7.125000 0.000000 0.000000 88.912916 -19.117915 28.760711 -18.288005 31.660868 -4.628830 0.737865 -2.611828 2.536848 7.125000 0.000000 0.000000 
9.150323 17.054772 0.725378 120.336969 78.711406 115.402822 -33.188003 8.915412 27.271631 -1.550517 3.844845 9.220040 0.686973 -0.533870 -14.865586 0.133200 -2.352200 -6.480200 12.049329 -6.937020 -9.595413 -1.807535 -4.943511 10.960208 -0.211416 -0.995559 -4.923078 -1.618200 -8.020800 22.777300 0.447899 -2.114420 -2.501139 2.664395 -1.247267 3.637832 4.714948 2.646266 5.126347 -0.964500 1.285000 9.231700 -90.830822 -5.576341 59.139330 21.639415 -33.655289 -6.873022 -0.257194 0.589591 -0.851166 -7.125000 0.000000 0.000000 88.946126 -18.906318 28.425374 -18.140443 31.519817 -4.588760 0.725601 -2.622272 2.975391 7.125000 0.000000 0.000000 
9.306083 17.074729 0.738068 120.957038 79.219767 116.008545 -32.631741 8.698053 27.594010 -1.515331 4.001259 9.727460 0.657349 -0.390662 -14.607632 0.106700 -2.106700 -5.800600 12.858635 -6.633076 -9.468938 -1.831285 -5.248781 11.697339 -0.217798 -1.091776 -5.384830 -1.400900 -7.487200 21.167100 0.506950 -2.060234 -2.534866 2.610017 -1.208462 3.509402 4.701664 2.668312 5.150847 -0.983200 1.299900 9.225400 -90.999776 -4.758184 58.962674 21.167450 -33.150729 -6.617731 -0.259532 0.590115 -0.794884 -7.125000 0.000000 0.000000 88.874684 -18.703914 28.256443 -17.987141 31.349941 -4.542499 0.711764 -2.628482 3.343136 7.125000 0.000000 0.000000 
